<svg width="200" height="200" viewBox="0 0 200 200" fill="none" xmlns="http://www.w3.org/2000/svg">
<path d="M83.3333 29.8167C81.6757 29.8167 80.086 29.1582 78.9139 27.9861C77.7418 26.814 77.0833 25.2243 77.0833 23.5667C77.0833 21.9091 77.7418 20.3194 78.9139 19.1473C80.086 17.9752 81.6757 17.3167 83.3333 17.3167H112.8C114.458 17.3167 116.047 17.9752 117.219 19.1473C118.392 20.3194 119.05 21.9091 119.05 23.5667C119.05 25.2243 118.392 26.814 117.219 27.9861C116.047 29.1582 114.458 29.8167 112.8 29.8167H83.3333ZM54.4167 33.5833C55.5871 34.7552 56.2445 36.3438 56.2445 38C56.2445 39.6563 55.5871 41.2448 54.4167 42.4167L33.5833 63.25C32.3985 64.354 30.8315 64.955 29.2123 64.9265C27.5931 64.8979 26.0483 64.242 24.9032 63.0969C23.758 61.9518 23.1021 60.4069 23.0735 58.7877C23.045 57.1685 23.646 55.6015 24.75 54.4167L45.5833 33.5833C46.7552 32.4129 48.3437 31.7555 50 31.7555C51.6563 31.7555 53.2448 32.4129 54.4167 33.5833Z" fill="#8C3AFF"/>
<path fill-rule="evenodd" clip-rule="evenodd" d="M100 42.1667C81.2139 42.1667 63.1971 49.6294 49.9133 62.9133C36.6295 76.1971 29.1667 94.2138 29.1667 113C29.1667 131.786 36.6295 149.803 49.9133 163.087C63.1971 176.371 81.2139 183.833 100 183.833C118.786 183.833 136.803 176.371 150.087 163.087C163.371 149.803 170.833 131.786 170.833 113C170.833 94.2138 163.371 76.1971 150.087 62.9133C136.803 49.6294 118.786 42.1667 100 42.1667ZM141.583 73.0917C142.192 72.2899 142.49 71.2949 142.422 70.2905C142.354 69.2862 141.924 68.3405 141.213 67.6282C140.502 66.9159 139.557 66.4851 138.552 66.4156C137.548 66.3461 136.553 66.6425 135.75 67.25L109.292 87.8167L92 100.175C90.5856 101.183 89.4079 102.487 88.5489 103.996C87.6898 105.505 87.17 107.184 87.0258 108.915C86.8815 110.645 87.1163 112.387 87.7136 114.017C88.3109 115.648 89.2565 117.129 90.4846 118.357C91.7126 119.585 93.1936 120.531 94.8243 121.128C96.455 121.725 98.1964 121.96 99.9271 121.816C101.658 121.672 103.336 121.152 104.846 120.293C106.355 119.434 107.659 118.256 108.667 116.842L121.017 99.5417L141.583 73.0917Z" fill="#8C3AFF"/>
</svg>
