<svg width="200" height="200" viewBox="0 0 200 200" fill="none" xmlns="http://www.w3.org/2000/svg">
<path d="M49.9999 166.667C45.4166 166.667 41.4944 165.036 38.2333 161.775C34.9722 158.514 33.3388 154.589 33.3333 150C33.3277 145.411 34.961 141.489 38.2333 138.233C41.5055 134.978 45.4277 133.344 49.9999 133.333C54.5722 133.322 58.4972 134.956 61.7749 138.233C65.0527 141.511 66.6833 145.433 66.6666 150C66.6499 154.567 65.0194 158.492 61.7749 161.775C58.5305 165.058 54.6055 166.689 49.9999 166.667ZM49.9999 116.667C45.4166 116.667 41.4944 115.036 38.2333 111.775C34.9722 108.514 33.3388 104.589 33.3333 100C33.3277 95.4111 34.961 91.4889 38.2333 88.2333C41.5055 84.9778 45.4277 83.3444 49.9999 83.3333C54.5722 83.3222 58.4972 84.9556 61.7749 88.2333C65.0527 91.5111 66.6833 95.4333 66.6666 100C66.6499 104.567 65.0194 108.492 61.7749 111.775C58.5305 115.058 54.6055 116.689 49.9999 116.667ZM49.9999 66.6667C45.4166 66.6667 41.4944 65.0361 38.2333 61.775C34.9722 58.5139 33.3388 54.5889 33.3333 50C33.3277 45.4111 34.961 41.4889 38.2333 38.2333C41.5055 34.9778 45.4277 33.3444 49.9999 33.3333C54.5722 33.3222 58.4972 34.9556 61.7749 38.2333C65.0527 41.5111 66.6833 45.4333 66.6666 50C66.6499 54.5667 65.0194 58.4917 61.7749 61.775C58.5305 65.0583 54.6055 66.6889 49.9999 66.6667ZM99.9999 66.6667C95.4166 66.6667 91.4944 65.0361 88.2333 61.775C84.9722 58.5139 83.3388 54.5889 83.3333 50C83.3277 45.4111 84.961 41.4889 88.2333 38.2333C91.5055 34.9778 95.4277 33.3444 99.9999 33.3333C104.572 33.3222 108.497 34.9556 111.775 38.2333C115.053 41.5111 116.683 45.4333 116.667 50C116.65 54.5667 115.019 58.4917 111.775 61.775C108.53 65.0583 104.605 66.6889 99.9999 66.6667ZM150 66.6667C145.417 66.6667 141.494 65.0361 138.233 61.775C134.972 58.5139 133.339 54.5889 133.333 50C133.328 45.4111 134.961 41.4889 138.233 38.2333C141.505 34.9778 145.428 33.3444 150 33.3333C154.572 33.3222 158.497 34.9556 161.775 38.2333C165.053 41.5111 166.683 45.4333 166.667 50C166.65 54.5667 165.019 58.4917 161.775 61.775C158.53 65.0583 154.605 66.6889 150 66.6667ZM99.9999 116.667C95.4166 116.667 91.4944 115.036 88.2333 111.775C84.9722 108.514 83.3388 104.589 83.3333 100C83.3277 95.4111 84.961 91.4889 88.2333 88.2333C91.5055 84.9778 95.4277 83.3444 99.9999 83.3333C104.572 83.3222 108.497 84.9556 111.775 88.2333C115.053 91.5111 116.683 95.4333 116.667 100C116.65 104.567 115.019 108.492 111.775 111.775C108.53 115.058 104.605 116.689 99.9999 116.667ZM108.333 166.667V141.042L154.375 95.2083C155.625 93.9583 157.014 93.0556 158.542 92.5C160.069 91.9445 161.597 91.6667 163.125 91.6667C164.792 91.6667 166.389 91.9806 167.917 92.6083C169.444 93.2361 170.833 94.1722 172.083 95.4167L179.792 103.125C180.903 104.375 181.772 105.764 182.4 107.292C183.028 108.819 183.339 110.347 183.333 111.875C183.328 113.403 183.05 114.967 182.5 116.567C181.95 118.167 181.047 119.589 179.792 120.833L133.958 166.667H108.333ZM163.125 120L170.833 111.875L163.125 104.167L155.208 112.083L163.125 120Z" fill="#8C3AFF"/>
</svg>
