<svg width="200" height="200" viewBox="0 0 200 200" fill="none" xmlns="http://www.w3.org/2000/svg">
<path d="M26 71.2971H173.509V38.6791C173.509 37.2593 172.919 35.9594 171.739 34.7793C170.559 33.5993 169.259 33.0061 167.839 33H31.6699C30.2563 33 28.9564 33.59 27.7702 34.7701C26.5839 35.9502 25.9939 37.2501 26 38.6699V71.2971ZM26 118.814H173.509V80.5164H26V118.814ZM31.6699 166.33H167.839C169.253 166.33 170.553 165.737 171.739 164.551C172.925 163.364 173.515 162.064 173.509 160.651V128.033H26V160.66C26 162.074 26.5901 163.374 27.7702 164.56C28.9502 165.746 30.2502 166.336 31.6699 166.33ZM42.3183 59.5978V44.7085H57.2075V59.5978H42.3183ZM42.3183 107.114V92.2158H57.2075V107.114H42.3183ZM42.3183 154.631V139.732H57.2075V154.631H42.3183Z" fill="#8C3AFF"/>
</svg>
