<svg width="200" height="200" viewBox="0 0 200 200" fill="none" xmlns="http://www.w3.org/2000/svg">
<path d="M166.667 183.333H54.1667C46.4312 183.333 39.0125 180.26 33.5427 174.791C28.0729 169.321 25 161.902 25 154.167V41.6667C25 35.0362 27.6339 28.6774 32.3223 23.989C37.0107 19.3006 43.3696 16.6667 50 16.6667H166.667C168.877 16.6667 170.996 17.5446 172.559 19.1074C174.122 20.6702 175 22.7899 175 25V175C175 177.21 174.122 179.33 172.559 180.893C170.996 182.455 168.877 183.333 166.667 183.333ZM158.333 166.667V141.667H54.1667C50.8515 141.667 47.672 142.984 45.3278 145.328C42.9836 147.672 41.6667 150.851 41.6667 154.167C41.6667 157.482 42.9836 160.661 45.3278 163.005C47.672 165.35 50.8515 166.667 54.1667 166.667H158.333Z" fill="#8C3AFF"/>
<path d="M130.157 71.9776C131.696 72.7962 132.984 74.0182 133.882 75.5128C134.78 77.0073 135.254 78.718 135.254 80.4615C135.254 82.2051 134.78 83.9158 133.882 85.4103C132.984 86.9048 131.696 88.1269 130.157 88.9455L89.093 111.276C82.4808 114.875 74.359 110.196 74.359 102.795V58.1314C74.359 50.7276 82.4808 46.0513 89.093 49.6442L130.157 71.9776Z" fill="white"/>
</svg>
